<svg width="600" height="400" viewBox="0 0 600 400" fill="none" xmlns="http://www.w3.org/2000/svg">
  <!-- Background -->
  <rect width="600" height="400" fill="#0f172a"/>
  
  <!-- Header Bar -->
  <rect width="600" height="60" fill="#1e293b"/>
  <rect x="20" y="15" width="120" height="30" rx="4" fill="#dc2626"/>
  <text x="30" y="35" fill="#ffffff" font-family="Arial" font-size="14" font-weight="bold">Bim Africa CRM</text>
  
  <!-- Navigation Menu -->
  <rect x="160" y="20" width="60" height="20" rx="4" fill="#dc2626"/>
  <text x="170" y="33" fill="#ffffff" font-family="Arial" font-size="10">Pipeline</text>
  
  <rect x="230" y="20" width="50" height="20" rx="4" fill="#374151"/>
  <text x="240" y="33" fill="#9ca3af" font-family="Arial" font-size="10">Leads</text>
  
  <rect x="290" y="20" width="60" height="20" rx="4" fill="#374151"/>
  <text x="300" y="33" fill="#9ca3af" font-family="Arial" font-size="10">Contacts</text>
  
  <rect x="360" y="20" width="70" height="20" rx="4" fill="#374151"/>
  <text x="370" y="33" fill="#9ca3af" font-family="Arial" font-size="10">Paiements</text>
  
  <!-- User Profile -->
  <circle cx="550" cy="30" r="15" fill="#dc2626"/>
  <text x="545" y="35" fill="#ffffff" font-family="Arial" font-size="12">B</text>
  
  <!-- Main Dashboard -->
  <text x="30" y="90" fill="#ffffff" font-family="Arial" font-size="18" font-weight="bold">Pipeline de Vente - Bim Africa</text>
  
  <!-- KPI Cards -->
  <rect x="30" y="110" width="130" height="80" rx="8" fill="#dc2626"/>
  <text x="40" y="130" fill="#ffffff" font-family="Arial" font-size="12">Leads Actifs</text>
  <text x="40" y="155" fill="#ffffff" font-family="Arial" font-size="28" font-weight="bold">5,247</text>
  <text x="40" y="175" fill="#fca5a5" font-family="Arial" font-size="10">+40% conversion</text>
  
  <rect x="170" y="110" width="130" height="80" rx="8" fill="#059669"/>
  <text x="180" y="130" fill="#ffffff" font-family="Arial" font-size="12">CA Mensuel</text>
  <text x="180" y="155" fill="#ffffff" font-family="Arial" font-size="28" font-weight="bold">€847K</text>
  <text x="180" y="175" fill="#86efac" font-family="Arial" font-size="10">+35% satisfaction</text>
  
  <rect x="310" y="110" width="130" height="80" rx="8" fill="#f59e0b"/>
  <text x="320" y="130" fill="#ffffff" font-family="Arial" font-size="12">Temps Traitement</text>
  <text x="320" y="155" fill="#ffffff" font-family="Arial" font-size="28" font-weight="bold">-60%</text>
  <text x="320" y="175" fill="#fbbf24" font-family="Arial" font-size="10">Leads processing</text>
  
  <rect x="450" y="110" width="130" height="80" rx="8" fill="#7c3aed"/>
  <text x="460" y="130" fill="#ffffff" font-family="Arial" font-size="12">Mobile Pay</text>
  <text x="460" y="155" fill="#ffffff" font-family="Arial" font-size="28" font-weight="bold">78%</text>
  <text x="460" y="175" fill="#a78bfa" font-family="Arial" font-size="10">Intégration</text>
  
  <!-- Sales Pipeline -->
  <rect x="30" y="210" width="350" height="160" rx="8" fill="#1e293b"/>
  <text x="40" y="235" fill="#ffffff" font-family="Arial" font-size="14" font-weight="bold">Pipeline de Vente Automatisé</text>
  
  <!-- Pipeline Stages -->
  <rect x="40" y="250" width="80" height="100" rx="4" fill="#374151"/>
  <text x="50" y="270" fill="#ffffff" font-family="Arial" font-size="10" font-weight="bold">Prospects</text>
  <text x="50" y="285" fill="#9ca3af" font-family="Arial" font-size="8">1,247 leads</text>
  
  <!-- Lead Cards in Prospects -->
  <rect x="45" y="295" width="70" height="15" rx="2" fill="#dc2626"/>
  <text x="50" y="305" fill="#ffffff" font-family="Arial" font-size="7">Entreprise ABC</text>
  
  <rect x="45" y="315" width="70" height="15" rx="2" fill="#f59e0b"/>
  <text x="50" y="325" fill="#ffffff" font-family="Arial" font-size="7">TechCorp Ltd</text>
  
  <rect x="45" y="335" width="70" height="15" rx="2" fill="#10b981"/>
  <text x="50" y="345" fill="#ffffff" font-family="Arial" font-size="7">StartupXYZ</text>
  
  <!-- Arrow -->
  <polygon points="125,300 135,295 135,305" fill="#9ca3af"/>
  
  <!-- Qualification Stage -->
  <rect x="140" y="250" width="80" height="100" rx="4" fill="#374151"/>
  <text x="150" y="270" fill="#ffffff" font-family="Arial" font-size="10" font-weight="bold">Qualification</text>
  <text x="150" y="285" fill="#9ca3af" font-family="Arial" font-size="8">847 qualifiés</text>
  
  <rect x="145" y="295" width="70" height="15" rx="2" fill="#059669"/>
  <text x="150" y="305" fill="#ffffff" font-family="Arial" font-size="7">Client Premium</text>
  
  <rect x="145" y="315" width="70" height="15" rx="2" fill="#7c3aed"/>
  <text x="150" y="325" fill="#ffffff" font-family="Arial" font-size="7">Prospect VIP</text>
  
  <!-- Arrow -->
  <polygon points="225,300 235,295 235,305" fill="#9ca3af"/>
  
  <!-- Proposition Stage -->
  <rect x="240" y="250" width="80" height="100" rx="4" fill="#374151"/>
  <text x="250" y="270" fill="#ffffff" font-family="Arial" font-size="10" font-weight="bold">Proposition</text>
  <text x="250" y="285" fill="#9ca3af" font-family="Arial" font-size="8">234 devis</text>
  
  <rect x="245" y="295" width="70" height="15" rx="2" fill="#dc2626"/>
  <text x="250" y="305" fill="#ffffff" font-family="Arial" font-size="7">€45K - ABC</text>
  
  <rect x="245" y="315" width="70" height="15" rx="2" fill="#f59e0b"/>
  <text x="250" y="325" fill="#ffffff" font-family="Arial" font-size="7">€78K - Tech</text>
  
  <!-- Arrow -->
  <polygon points="325,300 335,295 335,305" fill="#9ca3af"/>
  
  <!-- Closing Stage -->
  <rect x="340" y="250" width="80" height="100" rx="4" fill="#374151"/>
  <text x="350" y="270" fill="#ffffff" font-family="Arial" font-size="10" font-weight="bold">Signature</text>
  <text x="350" y="285" fill="#9ca3af" font-family="Arial" font-size="8">89 contrats</text>
  
  <rect x="345" y="295" width="70" height="15" rx="2" fill="#10b981"/>
  <text x="350" y="305" fill="#ffffff" font-family="Arial" font-size="7">✓ Signé ABC</text>
  
  <rect x="345" y="315" width="70" height="15" rx="2" fill="#10b981"/>
  <text x="350" y="325" fill="#ffffff" font-family="Arial" font-size="7">✓ Signé XYZ</text>
  
  <!-- Mobile Payment Integration Panel -->
  <rect x="400" y="210" width="180" height="160" rx="8" fill="#1e293b"/>
  <text x="410" y="235" fill="#ffffff" font-family="Arial" font-size="14" font-weight="bold">Paiements Mobile</text>
  
  <!-- Payment Methods -->
  <rect x="410" y="250" width="160" height="25" rx="4" fill="#374151"/>
  <rect x="415" y="255" width="20" height="15" rx="2" fill="#10b981"/>
  <text x="420" y="265" fill="#ffffff" font-family="Arial" font-size="8">📱</text>
  <text x="445" y="265" fill="#ffffff" font-family="Arial" font-size="10">Mobile Money - 78%</text>
  
  <rect x="410" y="280" width="160" height="25" rx="4" fill="#374151"/>
  <rect x="415" y="285" width="20" height="15" rx="2" fill="#7c3aed"/>
  <text x="420" y="295" fill="#ffffff" font-family="Arial" font-size="8">💳</text>
  <text x="445" y="295" fill="#ffffff" font-family="Arial" font-size="10">Cartes Bancaires - 15%</text>
  
  <rect x="410" y="310" width="160" height="25" rx="4" fill="#374151"/>
  <rect x="415" y="315" width="20" height="15" rx="2" fill="#f59e0b"/>
  <text x="420" y="325" fill="#ffffff" font-family="Arial" font-size="8">💰</text>
  <text x="445" y="325" fill="#ffffff" font-family="Arial" font-size="10">Espèces - 7%</text>
  
  <!-- Recent Transactions -->
  <text x="410" y="350" fill="#ffffff" font-family="Arial" font-size="12" font-weight="bold">Transactions Récentes</text>
  
  <rect x="410" y="355" width="160" height="12" rx="2" fill="#0f172a"/>
  <text x="415" y="364" fill="#10b981" font-family="Arial" font-size="8">✓ €2,450 - Mobile Pay ABC</text>
  
  <!-- Automation Badge -->
  <rect x="450" y="70" width="120" height="25" rx="12" fill="#10b981"/>
  <text x="460" y="87" fill="#ffffff" font-family="Arial" font-size="10" font-weight="bold">Auto-Workflows</text>
  
  <!-- Real-time indicator -->
  <circle cx="580" cy="100" r="4" fill="#10b981"/>
  <text x="560" y="115" fill="#10b981" font-family="Arial" font-size="8">Live</text>
</svg>